<svg width="355" height="1026" viewBox="0 0 355 1026" fill="none" xmlns="http://www.w3.org/2000/svg">
<path fill-rule="evenodd" clip-rule="evenodd" d="M-68.8787 933.349C-146.952 935.085 -221.135 987.262 -296.078 956.653C-381.723 921.674 -473.391 858.8 -505.187 755.149C-536.743 652.28 -472.609 551.189 -452.641 446.278C-433.229 344.286 -447.272 226.134 -389.969 149.798C-330.399 70.4438 -236.706 37.4792 -147.101 39.2591C-61.8682 40.9521 10.379 107.139 85.7482 159.248C164.355 213.594 274.71 243.365 300.47 348.698C326.512 455.184 225.761 538.327 204.365 644.274C184.146 744.393 242.962 879.285 179.83 946.074C116.666 1012.9 15.9805 931.463 -68.8787 933.349Z" fill="#F9B300"/>
</svg>
